<svg width="105" height="43" viewBox="0 0 105 43" fill="none" xmlns="http://www.w3.org/2000/svg">
<circle cx="71.5" cy="20.5" r="7.5" stroke="white" stroke-opacity="0.7" stroke-width="7"/>
<circle opacity="0.6" cx="71.5" cy="20.5" r="6.5" stroke="white" stroke-width="2"/>
<path d="M11.466 24.41C11.466 24.0807 11.1627 23.7427 10.556 23.396C9.96667 23.032 9.23 22.6507 8.346 22.252C7.462 21.836 6.56933 21.3767 5.668 20.874C4.76667 20.354 3.96067 19.6693 3.25 18.82C2.55667 17.9707 2.132 17.0347 1.976 16.012C2.808 14.348 4.04733 13.0133 5.694 12.008C7.34067 10.9853 9.256 10.3527 11.44 10.11C13.0173 10.1793 14.404 10.5433 15.6 11.202C16.8133 11.8607 17.732 12.71 18.356 13.75C18.0613 15.0153 17.4547 15.8647 16.536 16.298C15.6173 16.7313 14.2827 16.766 12.532 16.402C12.4627 14.9807 12.0727 13.7933 11.362 12.84C10.5647 13.1347 9.81067 13.516 9.1 13.984C8.38933 14.4347 8.034 14.8247 8.034 15.154C8.034 15.466 8.33733 15.8213 8.944 16.22C9.55067 16.6013 10.3047 17.026 11.206 17.494C12.1073 17.962 13.026 18.4733 13.962 19.028C14.898 19.5653 15.7473 20.198 16.51 20.926C17.2727 21.654 17.758 22.3993 17.966 23.162C17.654 25.138 16.5967 26.724 14.794 27.92C12.9913 29.116 10.764 29.8093 8.112 30C6.41333 29.7747 4.84467 29.298 3.406 28.57C1.98467 27.8247 0.970667 26.9493 0.364 25.944C1.768 22.9453 3.77 21.8533 6.37 22.668C6.526 23.9853 7.16733 25.5193 8.294 27.27C9.178 27.114 9.92333 26.7673 10.53 26.23C11.154 25.6927 11.466 25.086 11.466 24.41ZM25.7305 21.186C25.7305 23.1793 26.3978 25.1727 27.7325 27.166C28.8938 26.3167 29.9251 25.2593 30.8265 23.994C31.7278 22.7287 32.3345 21.4633 32.6465 20.198C32.5078 18.69 32.2651 17.3813 31.9185 16.272C31.5718 15.1453 30.9911 14.0013 30.1765 12.84C28.9458 13.828 27.8971 15.1453 27.0305 16.792C26.1638 18.4213 25.7305 19.886 25.7305 21.186ZM19.8285 21.524C19.8285 19.652 20.3051 17.832 21.2585 16.064C22.2118 14.296 23.5205 12.8487 25.1845 11.722C26.8485 10.5953 28.6078 10.032 30.4625 10.032C31.2078 10.032 32.0311 10.2833 32.9325 10.786C33.8338 11.2887 34.6658 11.9387 35.4285 12.736C36.2085 13.5333 36.8585 14.4867 37.3785 15.596C38.6958 18.3693 38.4618 21.2293 36.6765 24.176C35.6365 25.9093 34.2845 27.3133 32.6205 28.388C30.9738 29.4627 29.3185 30 27.6545 30C26.5278 30 25.3491 29.584 24.1185 28.752C22.9051 27.92 21.8825 26.8367 21.0505 25.502C20.2358 24.1673 19.8285 22.8413 19.8285 21.524ZM53.5559 30L44.4039 27.92L44.2479 27.998L44.4819 29.064C43.2513 29.8787 41.6739 30.156 39.7499 29.896C39.0566 29.376 38.7099 28.6307 38.7099 27.66C38.7099 26.3947 39.9753 24.7653 42.5059 22.772C43.6153 21.888 44.7593 21.0127 45.9379 20.146C48.9193 17.9273 50.8693 16.1333 51.7879 14.764L51.6319 14.53C50.1933 14.3393 48.7459 14.0967 47.2899 13.802C46.4753 14.7033 45.8859 15.7433 45.5219 16.922C42.5753 17.2167 40.7553 16.5147 40.0619 14.816C41.0326 12.4587 42.6446 10.89 44.8979 10.11C47.4459 10.7167 50.0893 11.4447 52.8279 12.294L53.5819 10.162C55.1246 10.162 56.2426 10.292 56.9359 10.552C57.6293 10.7947 58.1233 11.1327 58.4179 11.566C58.7126 11.9993 58.9033 12.554 58.9899 13.23C58.2099 14.6513 56.6326 16.3933 54.2579 18.456C52.4033 20.0333 50.5919 21.5153 48.8239 22.902C47.0559 24.2713 45.9726 25.112 45.5739 25.424L45.5999 25.632C48.0093 25.8747 49.9853 25.97 51.5279 25.918C51.8573 25.2073 52.1259 24.3147 52.3339 23.24C53.9459 22.8933 55.2113 22.9107 56.1299 23.292C57.0659 23.656 57.6726 24.306 57.9499 25.242C57.6033 26.2647 57.1266 27.1053 56.5199 27.764C55.9306 28.4227 54.9426 29.168 53.5559 30Z" fill="white"/>
<path d="M98.04 24.904C98.8547 25.2507 99.262 25.8573 99.262 26.724C99.262 27.5907 99.0193 28.3013 98.534 28.856L89.07 30C86.7473 29.22 85.3607 28.076 84.91 26.568C86.2793 22.876 87.3367 19.3313 88.082 15.934L88.03 11.514C89.226 10.9247 90.448 10.578 91.696 10.474C92.944 10.3527 94.01 10.4913 94.894 10.89L92.164 18.716L91.176 26.698C93.048 26.334 95.336 25.736 98.04 24.904Z" fill="white"/>
</svg>
